<?xml version="1.0" encoding="UTF-8"?>
<!-- Do not edit this file with editors other than diagrams.net -->
<!DOCTYPE svg PUBLIC "-//W3C//DTD SVG 1.1//EN" "http://www.w3.org/Graphics/SVG/1.1/DTD/svg11.dtd">
<svg xmlns="http://www.w3.org/2000/svg" xmlns:xlink="http://www.w3.org/1999/xlink" version="1.1" width="606px" height="461px" viewBox="-0.5 -0.5 606 461"><defs><clipPath id="mx-clip-31-30-132-30-0"><rect x="31" y="30" width="132" height="30"/></clipPath><clipPath id="mx-clip-31-60-132-30-0"><rect x="31" y="60" width="132" height="30"/></clipPath><clipPath id="mx-clip-31-90-132-30-0"><rect x="31" y="90" width="132" height="30"/></clipPath><clipPath id="mx-clip-31-120-132-30-0"><rect x="31" y="120" width="132" height="30"/></clipPath><clipPath id="mx-clip-31-150-132-30-0"><rect x="31" y="150" width="132" height="30"/></clipPath><clipPath id="mx-clip-31-180-132-30-0"><rect x="31" y="180" width="132" height="30"/></clipPath><clipPath id="mx-clip-31-210-132-30-0"><rect x="31" y="210" width="132" height="30"/></clipPath><clipPath id="mx-clip-251-30-132-30-0"><rect x="251" y="30" width="132" height="30"/></clipPath><clipPath id="mx-clip-251-60-132-30-0"><rect x="251" y="60" width="132" height="30"/></clipPath><clipPath id="mx-clip-251-90-132-30-0"><rect x="251" y="90" width="132" height="30"/></clipPath><clipPath id="mx-clip-251-120-132-30-0"><rect x="251" y="120" width="132" height="30"/></clipPath><clipPath id="mx-clip-251-150-132-30-0"><rect x="251" y="150" width="132" height="30"/></clipPath><clipPath id="mx-clip-251-180-132-30-0"><rect x="251" y="180" width="132" height="30"/></clipPath><clipPath id="mx-clip-251-210-132-30-0"><rect x="251" y="210" width="132" height="30"/></clipPath><clipPath id="mx-clip-251-240-132-30-0"><rect x="251" y="240" width="132" height="30"/></clipPath><clipPath id="mx-clip-251-270-132-30-0"><rect x="251" y="270" width="132" height="30"/></clipPath><clipPath id="mx-clip-441-120-132-30-0"><rect x="441" y="120" width="132" height="30"/></clipPath><clipPath id="mx-clip-441-150-132-30-0"><rect x="441" y="150" width="132" height="30"/></clipPath><clipPath id="mx-clip-30-370-132-30-0"><rect x="30" y="370" width="132" height="30"/></clipPath><clipPath id="mx-clip-30-400-132-30-0"><rect x="30" y="400" width="132" height="30"/></clipPath><clipPath id="mx-clip-30-430-132-30-0"><rect x="30" y="430" width="132" height="30"/></clipPath><clipPath id="mx-clip-441-370-132-30-0"><rect x="441" y="370" width="132" height="30"/></clipPath><clipPath id="mx-clip-441-400-132-30-0"><rect x="441" y="400" width="132" height="30"/></clipPath><clipPath id="mx-clip-441-430-132-30-0"><rect x="441" y="430" width="132" height="30"/></clipPath></defs><g><path d="M 27 30 L 27 0 L 167 0 L 167 30" fill="#ffffff" stroke="#000000" stroke-miterlimit="10" pointer-events="all"/><path d="M 27 30 L 27 240 L 167 240 L 167 30" fill="none" stroke="#000000" stroke-miterlimit="10" pointer-events="none"/><path d="M 27 30 L 167 30" fill="none" stroke="#000000" stroke-miterlimit="10" pointer-events="none"/><g fill="#000000" font-family="Helvetica" pointer-events="none" text-anchor="middle" font-size="12px"><text x="96.5" y="19.5">users</text></g><g fill="#000000" font-family="Helvetica" pointer-events="none" clip-path="url(#mx-clip-31-30-132-30-0)" font-size="12px"><text x="32.5" y="49.5">id (pk)</text></g><g fill="#000000" font-family="Helvetica" pointer-events="none" clip-path="url(#mx-clip-31-60-132-30-0)" font-size="12px"><text x="32.5" y="79.5">first_name</text></g><g fill="#000000" font-family="Helvetica" pointer-events="none" clip-path="url(#mx-clip-31-90-132-30-0)" font-size="12px"><text x="32.5" y="109.5">last_name</text></g><g fill="#000000" font-family="Helvetica" pointer-events="none" clip-path="url(#mx-clip-31-120-132-30-0)" font-size="12px"><text x="32.5" y="139.5">email</text></g><g fill="#000000" font-family="Helvetica" pointer-events="none" clip-path="url(#mx-clip-31-150-132-30-0)" font-size="12px"><text x="32.5" y="169.5">team</text></g><g fill="#000000" font-family="Helvetica" pointer-events="none" clip-path="url(#mx-clip-31-180-132-30-0)" font-size="12px"><text x="32.5" y="199.5">coach_info_fk</text></g><g fill="#000000" font-family="Helvetica" pointer-events="none" clip-path="url(#mx-clip-31-210-132-30-0)" font-size="12px"><text x="32.5" y="229.5">is_coach</text></g><path d="M 247 30 L 247 0 L 387 0 L 387 30" fill="#ffffff" stroke="#000000" stroke-miterlimit="10" pointer-events="none"/><path d="M 247 30 L 247 300 L 387 300 L 387 30" fill="none" stroke="#000000" stroke-miterlimit="10" pointer-events="none"/><path d="M 247 30 L 387 30" fill="none" stroke="#000000" stroke-miterlimit="10" pointer-events="none"/><g fill="#000000" font-family="Helvetica" pointer-events="none" text-anchor="middle" font-size="12px"><text x="316.5" y="19.5">sessions</text></g><g fill="#000000" font-family="Helvetica" pointer-events="none" clip-path="url(#mx-clip-251-30-132-30-0)" font-size="12px"><text x="252.5" y="49.5">id</text></g><g fill="#000000" font-family="Helvetica" pointer-events="none" clip-path="url(#mx-clip-251-60-132-30-0)" font-size="12px"><text x="252.5" y="79.5">coach_id</text></g><g fill="#000000" font-family="Helvetica" pointer-events="none" clip-path="url(#mx-clip-251-90-132-30-0)" font-size="12px"><text x="252.5" y="109.5">coachee_id</text></g><g fill="#000000" font-family="Helvetica" pointer-events="none" clip-path="url(#mx-clip-251-120-132-30-0)" font-size="12px"><text x="252.5" y="139.5">topic_id</text></g><g fill="#000000" font-family="Helvetica" pointer-events="none" clip-path="url(#mx-clip-251-150-132-30-0)" font-size="12px"><text x="252.5" y="169.5">location</text></g><g fill="#000000" font-family="Helvetica" pointer-events="none" clip-path="url(#mx-clip-251-180-132-30-0)" font-size="12px"><text x="252.5" y="199.5">date</text></g><g fill="#000000" font-family="Helvetica" pointer-events="none" clip-path="url(#mx-clip-251-210-132-30-0)" font-size="12px"><text x="252.5" y="229.5">time</text></g><g fill="#000000" font-family="Helvetica" pointer-events="none" clip-path="url(#mx-clip-251-240-132-30-0)" font-size="12px"><text x="252.5" y="259.5">status</text></g><g fill="#000000" font-family="Helvetica" pointer-events="none" clip-path="url(#mx-clip-251-270-132-30-0)" font-size="12px"><text x="252.5" y="289.5">feedback</text></g><path d="M 247 75 L 207 75 L 207 45 L 173.37 45" fill="none" stroke="#000000" stroke-miterlimit="10" pointer-events="none"/><path d="M 168.12 45 L 175.12 41.5 L 173.37 45 L 175.12 48.5 Z" fill="#000000" stroke="#000000" stroke-miterlimit="10" pointer-events="none"/><path d="M 247 105 L 197 105 L 197 40 L 173.37 40" fill="none" stroke="#000000" stroke-miterlimit="10" pointer-events="none"/><path d="M 168.12 40 L 175.12 36.5 L 173.37 40 L 175.12 43.5 Z" fill="#000000" stroke="#000000" stroke-miterlimit="10" pointer-events="none"/><path d="M 437 120 L 437 90 L 577 90 L 577 120" fill="#ffffff" stroke="#000000" stroke-miterlimit="10" pointer-events="none"/><path d="M 437 120 L 437 180 L 577 180 L 577 120" fill="none" stroke="#000000" stroke-miterlimit="10" pointer-events="none"/><path d="M 437 120 L 577 120" fill="none" stroke="#000000" stroke-miterlimit="10" pointer-events="none"/><g fill="#000000" font-family="Helvetica" pointer-events="none" text-anchor="middle" font-size="12px"><text x="506.5" y="109.5">topics</text></g><g fill="#000000" font-family="Helvetica" pointer-events="none" clip-path="url(#mx-clip-441-120-132-30-0)" font-size="12px"><text x="442.5" y="139.5">id</text></g><g fill="#000000" font-family="Helvetica" pointer-events="none" clip-path="url(#mx-clip-441-150-132-30-0)" font-size="12px"><text x="442.5" y="169.5">topic_name</text></g><path d="M 387 135 L 430.63 135" fill="none" stroke="#000000" stroke-miterlimit="10" pointer-events="none"/><path d="M 435.88 135 L 428.88 138.5 L 430.63 135 L 428.88 131.5 Z" fill="#000000" stroke="#000000" stroke-miterlimit="10" pointer-events="none"/><path d="M 26 370 L 26 340 L 166 340 L 166 370" fill="#ffffff" stroke="#000000" stroke-miterlimit="10" pointer-events="none"/><path d="M 26 370 L 26 460 L 166 460 L 166 370" fill="none" stroke="#000000" stroke-miterlimit="10" pointer-events="none"/><path d="M 26 370 L 166 370" fill="none" stroke="#000000" stroke-miterlimit="10" pointer-events="none"/><g fill="#000000" font-family="Helvetica" pointer-events="none" text-anchor="middle" font-size="12px"><text x="95.5" y="359.5">coach_info</text></g><g fill="#000000" font-family="Helvetica" pointer-events="none" clip-path="url(#mx-clip-30-370-132-30-0)" font-size="12px"><text x="31.5" y="389.5">coach_info_id</text></g><g fill="#000000" font-family="Helvetica" pointer-events="none" clip-path="url(#mx-clip-30-400-132-30-0)" font-size="12px"><text x="31.5" y="419.5">introduction</text></g><g fill="#000000" font-family="Helvetica" pointer-events="none" clip-path="url(#mx-clip-30-430-132-30-0)" font-size="12px"><text x="31.5" y="449.5">availabilty</text></g><path d="M 167 195 L 207 195 L 207 280 L 7 280 L 7 385 L 19.63 385" fill="none" stroke="#000000" stroke-miterlimit="10" pointer-events="none"/><path d="M 24.88 385 L 17.88 388.5 L 19.63 385 L 17.88 381.5 Z" fill="#000000" stroke="#000000" stroke-miterlimit="10" pointer-events="none"/><path d="M 437 370 L 437 340 L 577 340 L 577 370" fill="#ffffff" stroke="#000000" stroke-miterlimit="10" pointer-events="none"/><path d="M 437 370 L 437 460 L 577 460 L 577 370" fill="none" stroke="#000000" stroke-miterlimit="10" pointer-events="none"/><path d="M 437 370 L 577 370" fill="none" stroke="#000000" stroke-miterlimit="10" pointer-events="none"/><g fill="#000000" font-family="Helvetica" pointer-events="none" text-anchor="middle" font-size="12px"><text x="506.5" y="359.5">coach_info_topic</text></g><g fill="#000000" font-family="Helvetica" pointer-events="none" clip-path="url(#mx-clip-441-370-132-30-0)" font-size="12px"><text x="442.5" y="389.5">coach_info_id</text></g><g fill="#000000" font-family="Helvetica" pointer-events="none" clip-path="url(#mx-clip-441-400-132-30-0)" font-size="12px"><text x="442.5" y="419.5">topic_id</text></g><g fill="#000000" font-family="Helvetica" pointer-events="none" clip-path="url(#mx-clip-441-430-132-30-0)" font-size="12px"><text x="442.5" y="449.5">expertise</text></g><path d="M 577 415 L 597 415 L 597 135 L 583.37 135" fill="none" stroke="#000000" stroke-miterlimit="10" pointer-events="none"/><path d="M 578.12 135 L 585.12 131.5 L 583.37 135 L 585.12 138.5 Z" fill="#000000" stroke="#000000" stroke-miterlimit="10" pointer-events="none"/><path d="M 437 385 L 172.37 385" fill="none" stroke="#000000" stroke-miterlimit="10" pointer-events="none"/><path d="M 167.12 385 L 174.12 381.5 L 172.37 385 L 174.12 388.5 Z" fill="#000000" stroke="#000000" stroke-miterlimit="10" pointer-events="none"/><path d="M 542 340 L 542 343.59" fill="none" stroke="#000000" stroke-miterlimit="10" pointer-events="none"/><path d="M 542 348.84 L 538.5 341.84 L 542 343.59 L 545.5 341.84 Z" fill="#000000" stroke="#000000" stroke-miterlimit="10" pointer-events="none"/></g></svg>